<svg xmlns="http://www.w3.org/2000/svg" viewBox="0 0 512 512" width="100%" height="100%">
  <defs>
    <linearGradient id="bgGrad" x1="0%" y1="0%" x2="100%" y2="100%">
      <stop offset="0%" stop-color="#0b192c" />
      <stop offset="100%" stop-color="#1e3a8a" />
    </linearGradient>
    <linearGradient id="goldGrad" x1="0%" y1="0%" x2="100%" y2="100%">
      <stop offset="0%" stop-color="#fbbf24" />
      <stop offset="100%" stop-color="#d97706" />
    </linearGradient>
    <linearGradient id="whiteGrad" x1="0%" y1="0%" x2="0%" y2="100%">
      <stop offset="0%" stop-color="#ffffff" />
      <stop offset="100%" stop-color="#93c5fd" />
    </linearGradient>
  </defs>
  
  <rect width="512" height="512" rx="112" fill="url(#bgGrad)" />
  <rect x="16" y="16" width="480" height="480" rx="96" fill="none" stroke="url(#goldGrad)" stroke-width="8" stroke-opacity="0.4" />

  <path d="M256 96 C200 96 172 152 160 200 L352 200 C340 152 312 96 256 96 Z" fill="url(#goldGrad)" />
  <path d="M248 64 H264 V96 H248 Z" fill="url(#goldGrad)" />

  <polygon points="256,170 128,216 384,216" fill="url(#whiteGrad)" />
  <rect x="136" y="216" width="240" height="20" fill="url(#goldGrad)" rx="4" />

  <rect x="156" y="244" width="32" height="120" rx="6" fill="url(#whiteGrad)" />
  <rect x="216" y="244" width="32" height="120" rx="6" fill="url(#whiteGrad)" />
  <rect x="264" y="244" width="32" height="120" rx="6" fill="url(#whiteGrad)" />
  <rect x="324" y="244" width="32" height="120" rx="6" fill="url(#whiteGrad)" />

  <rect x="120" y="370" width="272" height="24" rx="6" fill="url(#goldGrad)" />
  <rect x="96" y="398" width="320" height="28" rx="8" fill="url(#whiteGrad)" />

  <polygon points="256,290 263,312 286,312 267,325 274,347 256,333 238,347 245,325 226,312 249,312" fill="url(#goldGrad)" />
</svg>
